REM Generated by IcecastMetadataRecorder
REM 2020-07-29T04:00:07.969Z
TITLE "isics-all"
FILE "isics-all.mp3" WAVE
  TRACK 1 AUDIO
    TITLE "2020-07-29T04:00:08.057Z TO:5302 Department of Public Safety - Area D Law 2D - DPS District #11 FROM:16720"
    INDEX 01 00:00:00
  TRACK 2 AUDIO
    TITLE "2020-07-29T04:00:15.022Z TO:91 Polk County - West Des Moines EMS FROM:123"
    INDEX 01 00:07:04
  TRACK 3 AUDIO
    TITLE "2020-07-29T04:00:17.159Z TO:5302 Department of Public Safety - Area D Law 2D - DPS District #11 FROM:10980"
    INDEX 01 00:09:14
  TRACK 4 AUDIO
    TITLE "2020-07-29T04:00:19.225Z TO:91 Polk County - West Des Moines EMS FROM:1933"
    INDEX 01 00:11:19
  TRACK 5 AUDIO
    TITLE "2020-07-29T04:00:21.315Z TO:91 Polk County - West Des Moines EMS FROM:123"
    INDEX 01 00:13:26
  TRACK 6 AUDIO
    TITLE "2020-07-29T04:00:24.826Z TO:5302 Department of Public Safety - Area D Law 2D - DPS District #11 FROM:16720"
    INDEX 01 00:16:63
  TRACK 7 AUDIO
    TITLE "2020-07-29T04:00:26.921Z TO:1102 Polk County - Westcom Law Enforcement 2 FROM:5108"
    INDEX 01 00:18:70
  TRACK 8 AUDIO
    TITLE "2020-07-29T04:00:29.033Z TO:1102 Polk County - Westcom Law Enforcement 2 FROM:1006"
    INDEX 01 00:21:05
  TRACK 9 AUDIO
    TITLE "2020-07-29T04:00:31.114Z TO:1102 Polk County - Westcom Law Enforcement 2 FROM:5108"
    INDEX 01 00:23:11
  TRACK 10 AUDIO
    TITLE "2020-07-29T04:00:33.226Z TO:1102 Polk County - Westcom Law Enforcement 2 FROM:UNKNOWN"
    INDEX 01 00:25:19
  TRACK 11 AUDIO
    TITLE "2020-07-29T04:00:34.640Z TO:1102 Polk County - Westcom Law Enforcement 2 FROM:5108"
    INDEX 01 00:26:50
  TRACK 12 AUDIO
    TITLE "2020-07-29T04:00:39.522Z TO:24605 Dallas County Law 1 FROM:2500044"
    INDEX 01 00:31:41
  TRACK 13 AUDIO
    TITLE "2020-07-29T04:00:41.609Z TO:1101 Polk County - Westcom Law Enforcement 1 FROM:1004"
    INDEX 01 00:33:47
  TRACK 14 AUDIO
    TITLE "2020-07-29T04:00:45.121Z TO:24605 Dallas County Law 1 FROM:2510020"
    INDEX 01 00:37:11
  TRACK 15 AUDIO
    TITLE "2020-07-29T04:00:45.833Z TO:1101 Polk County - Westcom Law Enforcement 1 FROM:7626"
    INDEX 01 00:37:64
  TRACK 16 AUDIO
    TITLE "2020-07-29T04:00:48.617Z TO:1101 Polk County - Westcom Law Enforcement 1 FROM:1004"
    INDEX 01 00:40:48
  TRACK 17 AUDIO
    TITLE "2020-07-29T04:00:50.721Z TO:24605 Dallas County Law 1 FROM:2500044"
    INDEX 01 00:42:56
  TRACK 18 AUDIO
    TITLE "2020-07-29T04:00:55.625Z TO:1102 Polk County - Westcom Law Enforcement 2 FROM:1006"
    INDEX 01 00:47:49
  TRACK 19 AUDIO
    TITLE "2020-07-29T04:01:02.633Z TO:1102 Polk County - Westcom Law Enforcement 2 FROM:5108"
    INDEX 01 00:54:49
  TRACK 20 AUDIO
    TITLE "2020-07-29T04:01:04.025Z TO:5302 Department of Public Safety - Area D Law 2D - DPS District #11 FROM:UNKNOWN"
    INDEX 01 00:56:04
  TRACK 21 AUDIO
    TITLE "2020-07-29T04:01:18.017Z TO:24605 Dallas County Law 1 FROM:UNKNOWN"
    INDEX 01 01:10:04
  TRACK 22 AUDIO
    TITLE "2020-07-29T04:01:20.153Z TO:5302 Department of Public Safety - Area D Law 2D - DPS District #11 FROM:16720"
    INDEX 01 01:12:14
  TRACK 23 AUDIO
    TITLE "2020-07-29T04:01:22.217Z TO:1102 Polk County - Westcom Law Enforcement 2 FROM:1006"
    INDEX 01 01:14:18
  TRACK 24 AUDIO
    TITLE "2020-07-29T04:01:23.641Z TO:5013 Department of Public Safety - Area A P16Call 13A - Capital Police FROM:10867"
    INDEX 01 01:15:50
  TRACK 25 AUDIO
    TITLE "2020-07-29T04:01:27.833Z TO:5013 Department of Public Safety - Area A P16Call 13A - Capital Police FROM:10993"
    INDEX 01 01:19:64
  TRACK 26 AUDIO
    TITLE "2020-07-29T04:01:29.201Z Scanning ...."
    INDEX 01 01:21:17
  TRACK 27 AUDIO
    TITLE "2020-07-29T04:01:55.833Z TO:5013 Department of Public Safety - Area A P16Call 13A - Capital Police FROM:10867"
    INDEX 01 01:47:64
  TRACK 28 AUDIO
    TITLE "2020-07-29T04:01:59.313Z Scanning ...."
    INDEX 01 01:51:25
  TRACK 29 AUDIO
    TITLE "2020-07-29T04:02:01.433Z TO:5013 Department of Public Safety - Area A P16Call 13A - Capital Police FROM:UNKNOWN"
    INDEX 01 01:53:34
  TRACK 30 AUDIO
    TITLE "2020-07-29T04:02:02.801Z Scanning ...."
    INDEX 01 01:54:62
  TRACK 31 AUDIO
    TITLE "2020-07-29T04:02:16.801Z TO:24605 Dallas County Law 1 FROM:2500013"
    INDEX 01 02:08:62
  TRACK 32 AUDIO
    TITLE "2020-07-29T04:02:19.617Z TO:24605 Dallas County Law 1 FROM:2559982"
    INDEX 01 02:11:48
  TRACK 33 AUDIO
    TITLE "2020-07-29T04:02:21.713Z Scanning ...."
    INDEX 01 02:13:55
  TRACK 34 AUDIO
    TITLE "2020-07-29T04:02:42.025Z TO:1101 Polk County - Westcom Law Enforcement 1 FROM:1004"
    INDEX 01 02:34:04
  TRACK 35 AUDIO
    TITLE "2020-07-29T04:02:44.801Z TO:18513 Boone County Incident 5E FROM:800534"
    INDEX 01 02:36:62
  TRACK 36 AUDIO
    TITLE "2020-07-29T04:02:48.329Z TO:1101 Polk County - Westcom Law Enforcement 1 FROM:1364"
    INDEX 01 02:40:27
  TRACK 37 AUDIO
    TITLE "2020-07-29T04:02:51.113Z TO:1101 Polk County - Westcom Law Enforcement 1 FROM:UNKNOWN"
    INDEX 01 02:43:11
  TRACK 38 AUDIO
    TITLE "2020-07-29T04:02:52.497Z Scanning ...."
    INDEX 01 02:44:39
  TRACK 39 AUDIO
    TITLE "2020-07-29T04:02:54.633Z TO:1101 Polk County - Westcom Law Enforcement 1 FROM:7609"
    INDEX 01 02:46:49
  TRACK 40 AUDIO
    TITLE "2020-07-29T04:02:57.417Z TO:1101 Polk County - Westcom Law Enforcement 1 FROM:1004"
    INDEX 01 02:49:33
  TRACK 41 AUDIO
    TITLE "2020-07-29T04:03:00.209Z Scanning ...."
    INDEX 01 02:52:18
  TRACK 42 AUDIO
    TITLE "2020-07-29T04:03:05.129Z TO:1101 Polk County - Westcom Law Enforcement 1 FROM:7609"
    INDEX 01 02:57:12
  TRACK 43 AUDIO
    TITLE "2020-07-29T04:03:12.809Z TO:1101 Polk County - Westcom Law Enforcement 1 FROM:UNKNOWN"
    INDEX 01 03:04:62
  TRACK 44 AUDIO
    TITLE "2020-07-29T04:03:14.225Z TO:5002 Department of Public Safety - Area A Law 2A - DPS District #1 FROM:11525"
    INDEX 01 03:06:19
  TRACK 45 AUDIO
    TITLE "2020-07-29T04:03:18.417Z TO:5002 Department of Public Safety - Area A Law 2A - DPS District #1 FROM:10984"
    INDEX 01 03:10:33
  TRACK 46 AUDIO
    TITLE "2020-07-29T04:03:21.921Z TO:59908 Warren County Law 1 FROM:9111050"
    INDEX 01 03:13:70
  TRACK 47 AUDIO
    TITLE "2020-07-29T04:03:24.705Z TO:59908 Warren County Law 1 FROM:9199991"
    INDEX 01 03:16:55
  TRACK 48 AUDIO
    TITLE "2020-07-29T04:03:26.801Z Scanning ...."
    INDEX 01 03:18:62
  TRACK 49 AUDIO
    TITLE "2020-07-29T04:03:49.945Z TO:5013 Department of Public Safety - Area A P16Call 13A - Capital Police FROM:10365"
    INDEX 01 03:41:72
  TRACK 50 AUDIO
    TITLE "2020-07-29T04:03:53.433Z TO:5302 Department of Public Safety - Area D Law 2D - DPS District #11 FROM:UNKNOWN"
    INDEX 01 03:45:34
  TRACK 51 AUDIO
    TITLE "2020-07-29T04:03:57.609Z TO:1101 Polk County - Westcom Law Enforcement 1 FROM:1395"
    INDEX 01 03:49:47
  TRACK 52 AUDIO
    TITLE "2020-07-29T04:04:00.425Z TO:1101 Polk County - Westcom Law Enforcement 1 FROM:1004"
    INDEX 01 03:52:34
  TRACK 53 AUDIO
    TITLE "2020-07-29T04:04:02.553Z TO:5013 Department of Public Safety - Area A P16Call 13A - Capital Police FROM:10993"
    INDEX 01 03:54:43
  TRACK 54 AUDIO
    TITLE "2020-07-29T04:04:04.633Z TO:5302 Department of Public Safety - Area D Law 2D - DPS District #11 FROM:10980"
    INDEX 01 03:56:49
  TRACK 55 AUDIO
    TITLE "2020-07-29T04:04:08.137Z TO:1101 Polk County - Westcom Law Enforcement 1 FROM:1395"
    INDEX 01 04:00:12
  TRACK 56 AUDIO
    TITLE "2020-07-29T04:04:16.521Z TO:1101 Polk County - Westcom Law Enforcement 1 FROM:UNKNOWN"
    INDEX 01 04:08:41
  TRACK 57 AUDIO
    TITLE "2020-07-29T04:04:17.201Z Scanning ...."
    INDEX 01 04:09:17
  TRACK 58 AUDIO
    TITLE "2020-07-29T04:05:16.001Z TO:18513 Boone County Incident 5E FROM:800534"
    INDEX 01 05:08:02
  TRACK 59 AUDIO
    TITLE "2020-07-29T04:05:17.393Z Scanning ...."
    INDEX 01 05:09:31
  TRACK 60 AUDIO
    TITLE "2020-07-29T04:05:24.425Z TO:91 Polk County - West Des Moines EMS FROM:1933"
    INDEX 01 05:16:34
  TRACK 61 AUDIO
    TITLE "2020-07-29T04:05:27.889Z Scanning ...."
    INDEX 01 05:19:68
  TRACK 62 AUDIO
    TITLE "2020-07-29T04:05:30.017Z TO:91 Polk County - West Des Moines EMS FROM:123"
    INDEX 01 05:22:04
  TRACK 63 AUDIO
    TITLE "2020-07-29T04:05:32.113Z Scanning ...."
    INDEX 01 05:24:11
  TRACK 64 AUDIO
    TITLE "2020-07-29T04:05:32.809Z TO:91 Polk County - West Des Moines EMS FROM:1933"
    INDEX 01 05:24:62
  TRACK 65 AUDIO
    TITLE "2020-07-29T04:05:34.897Z Scanning ...."
    INDEX 01 05:26:69
  TRACK 66 AUDIO
    TITLE "2020-07-29T04:05:37.025Z TO:91 Polk County - West Des Moines EMS FROM:123"
    INDEX 01 05:29:04
  TRACK 67 AUDIO
    TITLE "2020-07-29T04:05:40.497Z Scanning ...."
    INDEX 01 05:32:39
  TRACK 68 AUDIO
    TITLE "2020-07-29T04:06:00.153Z TO:5302 Department of Public Safety - Area D Law 2D - DPS District #11 FROM:16720"
    INDEX 01 05:52:14
  TRACK 69 AUDIO
    TITLE "2020-07-29T04:06:03.641Z TO:5302 Department of Public Safety - Area D Law 2D - DPS District #11 FROM:10980"
    INDEX 01 05:55:50
  TRACK 70 AUDIO
    TITLE "2020-07-29T04:06:05.713Z Scanning ...."
    INDEX 01 05:57:55
  TRACK 71 AUDIO
    TITLE "2020-07-29T04:06:06.425Z TO:5302 Department of Public Safety - Area D Law 2D - DPS District #11 FROM:16720"
    INDEX 01 05:58:34
  TRACK 72 AUDIO
    TITLE "2020-07-29T04:06:10.625Z TO:24605 Dallas County Law 1 FROM:UNKNOWN"
    INDEX 01 06:02:49
  TRACK 73 AUDIO
    TITLE "2020-07-29T04:06:14.113Z TO:24605 Dallas County Law 1 FROM:UNKNOWN"
    INDEX 01 06:06:11
  TRACK 74 AUDIO
    TITLE "2020-07-29T04:06:16.233Z TO:1101 Polk County - Westcom Law Enforcement 1 FROM:1004"
    INDEX 01 06:08:20
  TRACK 75 AUDIO
    TITLE "2020-07-29T04:06:18.313Z TO:1101 Polk County - Westcom Law Enforcement 1 FROM:7609"
    INDEX 01 06:10:25
  TRACK 76 AUDIO
    TITLE "2020-07-29T04:06:21.129Z TO:1101 Polk County - Westcom Law Enforcement 1 FROM:UNKNOWN"
    INDEX 01 06:13:12
  TRACK 77 AUDIO
    TITLE "2020-07-29T04:06:22.513Z Scanning ...."
    INDEX 01 06:14:40
  TRACK 78 AUDIO
    TITLE "2020-07-29T04:06:26.041Z TO:5302 Department of Public Safety - Area D Law 2D - DPS District #11 FROM:UNKNOWN"
    INDEX 01 06:18:05
  TRACK 79 AUDIO
    TITLE "2020-07-29T04:06:43.545Z TO:5302 Department of Public Safety - Area D Law 2D - DPS District #11 FROM:10980"
    INDEX 01 06:35:43
  TRACK 80 AUDIO
    TITLE "2020-07-29T04:06:53.337Z TO:5302 Department of Public Safety - Area D Law 2D - DPS District #11 FROM:16720"
    INDEX 01 06:45:27
  TRACK 81 AUDIO
    TITLE "2020-07-29T04:06:55.433Z TO:1101 Polk County - Westcom Law Enforcement 1 FROM:1378"
    INDEX 01 06:47:34
  TRACK 82 AUDIO
    TITLE "2020-07-29T04:06:58.217Z TO:1101 Polk County - Westcom Law Enforcement 1 FROM:1004"
    INDEX 01 06:50:18
  TRACK 83 AUDIO
    TITLE "2020-07-29T04:07:00.305Z Scanning ...."
    INDEX 01 06:52:25
  TRACK 84 AUDIO
    TITLE "2020-07-29T04:07:22.729Z TO:1101 Polk County - Westcom Law Enforcement 1 FROM:1004"
    INDEX 01 07:14:56
  TRACK 85 AUDIO
    TITLE "2020-07-29T04:07:24.785Z Scanning ...."
    INDEX 01 07:16:60
  TRACK 86 AUDIO
    TITLE "2020-07-29T04:07:25.513Z TO:1101 Polk County - Westcom Law Enforcement 1 FROM:1395"
    INDEX 01 07:17:40
  TRACK 87 AUDIO
    TITLE "2020-07-29T04:07:27.625Z TO:1101 Polk County - Westcom Law Enforcement 1 FROM:UNKNOWN"
    INDEX 01 07:19:49
  TRACK 88 AUDIO
    TITLE "2020-07-29T04:07:29.753Z TO:5302 Department of Public Safety - Area D Law 2D - DPS District #11 FROM:11152"
    INDEX 01 07:21:58
  TRACK 89 AUDIO
    TITLE "2020-07-29T04:07:33.241Z TO:5302 Department of Public Safety - Area D Law 2D - DPS District #11 FROM:10980"
    INDEX 01 07:25:20
  TRACK 90 AUDIO
    TITLE "2020-07-29T04:07:35.313Z Scanning ...."
    INDEX 01 07:27:25
  TRACK 91 AUDIO
    TITLE "2020-07-29T04:07:40.249Z TO:5302 Department of Public Safety - Area D Law 2D - DPS District #11 FROM:11152"
    INDEX 01 07:32:21
  TRACK 92 AUDIO
    TITLE "2020-07-29T04:07:48.633Z TO:5302 Department of Public Safety - Area D Law 2D - DPS District #11 FROM:10980"
    INDEX 01 07:40:49
  TRACK 93 AUDIO
    TITLE "2020-07-29T04:07:52.113Z Scanning ...."
    INDEX 01 07:44:11
  TRACK 94 AUDIO
    TITLE "2020-07-29T04:08:01.945Z TO:5302 Department of Public Safety - Area D Law 2D - DPS District #11 FROM:UNKNOWN"
    INDEX 01 07:53:72
  TRACK 95 AUDIO
    TITLE "2020-07-29T04:08:04.689Z Scanning ...."
    INDEX 01 07:56:53
  TRACK 96 AUDIO
    TITLE "2020-07-29T04:08:06.137Z TO:5302 Department of Public Safety - Area D Law 2D - DPS District #11 FROM:10980"
    INDEX 01 07:58:12
  TRACK 97 AUDIO
    TITLE "2020-07-29T04:08:08.913Z Scanning ...."
    INDEX 01 08:00:70
  TRACK 98 AUDIO
    TITLE "2020-07-29T04:08:40.441Z TO:5302 Department of Public Safety - Area D Law 2D - DPS District #11 FROM:16720"
    INDEX 01 08:32:35
  TRACK 99 AUDIO
    TITLE "2020-07-29T04:08:44.633Z TO:5302 Department of Public Safety - Area D Law 2D - DPS District #11 FROM:10980"
    INDEX 01 08:36:49
  TRACK 100 AUDIO
    TITLE "2020-07-29T04:08:47.409Z Scanning ...."
    INDEX 01 08:39:33
  TRACK 101 AUDIO
    TITLE "2020-07-29T04:09:18.217Z TO:1101 Polk County - Westcom Law Enforcement 1 FROM:1489"
    INDEX 01 09:10:18
  TRACK 102 AUDIO
    TITLE "2020-07-29T04:09:21.009Z Scanning ...."
    INDEX 01 09:13:03
  TRACK 103 AUDIO
    TITLE "2020-07-29T04:09:21.737Z TO:1101 Polk County - Westcom Law Enforcement 1 FROM:1004"
    INDEX 01 09:13:57
  TRACK 104 AUDIO
    TITLE "2020-07-29T04:09:23.793Z Scanning ...."
    INDEX 01 09:15:61
  TRACK 105 AUDIO
    TITLE "2020-07-29T04:09:30.825Z TO:1101 Polk County - Westcom Law Enforcement 1 FROM:1489"
    INDEX 01 09:22:63
  TRACK 106 AUDIO
    TITLE "2020-07-29T04:09:39.209Z TO:1101 Polk County - Westcom Law Enforcement 1 FROM:1004"
    INDEX 01 09:31:18
  TRACK 107 AUDIO
    TITLE "2020-07-29T04:09:39.889Z Scanning ...."
    INDEX 01 09:31:68
  TRACK 108 AUDIO
    TITLE "2020-07-29T04:10:11.425Z TO:24605 Dallas County Law 1 FROM:UNKNOWN"
    INDEX 01 10:03:34
  TRACK 109 AUDIO
    TITLE "2020-07-29T04:10:14.209Z TO:24605 Dallas County Law 1 FROM:2559981"
    INDEX 01 10:06:18
  TRACK 110 AUDIO
    TITLE "2020-07-29T04:10:16.329Z TO:1101 Polk County - Westcom Law Enforcement 1 FROM:1004"
    INDEX 01 10:08:27
  TRACK 111 AUDIO
    TITLE "2020-07-29T04:10:19.793Z Scanning ...."
    INDEX 01 10:11:61
  TRACK 112 AUDIO
    TITLE "2020-07-29T04:10:26.825Z TO:1101 Polk County - Westcom Law Enforcement 1 FROM:5106"
    INDEX 01 10:18:63
  TRACK 113 AUDIO
    TITLE "2020-07-29T04:10:28.937Z TO:1101 Polk County - Westcom Law Enforcement 1 FROM:4053"
    INDEX 01 10:20:72
  TRACK 114 AUDIO
    TITLE "2020-07-29T04:10:30.993Z Scanning ...."
    INDEX 01 10:23:02